<svg viewBox="0 0 100 100" xmlns="http://www.w3.org/2000/svg">
  <path fill="#0084ff" d="m50 0 15.08 10.58 20.28 4.06 3.17 18.15L100 50 89.42 65.08l-4.06 20.28-18.15 3.17L50 100 34.92 89.42l-20.28-4.06-3.18-18.15L0 50l10.58-15.08 4.06-20.28 18.15-3.18L50 0z"/>
  <path d="M50 55.94c7.06-3.84 11.36-4.08 18.92-1.13l.2.08 10 16.85L76.7 70c-.28-.2-.57-.4-.85-.58l1.57 2.75-2.25-1.54-.25-.17 1.82 2.82-2.54-1.67c-8-5.41-15.69-4.37-23.82 0v.06h-.09l-.29.13-.24-.13-.26-.14c-8.12-4.31-15.74-5.29-23.7.08l-2.55 1.71 1.83-2.82-.26.17-2.24 1.54 1.56-2.75c-.28.18-.56.38-.84.58l-2.41 1.7 10-16.85.2-.08C38.65 51.86 43 52.1 50 55.94Z"/>
  <path d="m77.36 74-3.26-2.2c-7.22-4.87-14.49-4.88-23.56 0v.14h-.2L50 72l-.59-.31c-9.05-4.82-16.3-4.8-23.51.06L22.65 74l1.82-2.82-2.41 1.65L23.63 70l-.22.16-3.08 2.17 10.44-17.6.26-.1c7.63-3 11.9-2.74 19 1.09 7.09-3.83 11.36-4.07 19-1.09l.26.1 10.43 17.6-3.12-2.15-.22-.18 1.56 2.75-2.4-1.65ZM25.7 69.88l-1.83 2.82 1.84-1.24c7.33-4.94 14.7-5 23.88-.08l.18.1.24.12.28-.16c9.24-5 16.64-4.94 24 0l1.83 1.24-1.82-2.82 2.58 1.75-1.56-2.74.62.42c.28.19.57.38.85.59l1.74 1.22L69 55h-.15c-7.43-2.9-11.63-2.7-18.48 1l.32.18h-1.37l.32-.18c-6.85-3.67-11-3.87-18.49-1H31l-9.53 16.12 1.74-1.23.85-.58.61-.41-1.55 2.73Z"/>
  <path d="M50 71.08c8-4.28 16-5.78 24.55 0L67 59.36c-6.61-2.55-10.36-2.47-17 1.13v10.59Z" fill="#fff"/>
  <path d="m75.16 71.71-.71-.48c-7.4-5-14.83-5-24.06-.15l.35.17h-1.43l.52-.28V60.39h.09c6.45-3.56 10.29-3.82 17.08-1.19Zm-25-11.11v10.19c9.11-4.79 16.49-4.92 23.84-.3l-7.1-11c-6.77-2.57-10.38-2.33-16.72 1.11Z"/>
  <path d="M50 69.75c8.5-4.64 16.38-5.85 25.53.4L68.1 57.07c-7-2.75-11-2.66-18.1 1.23Z" fill="#fff"/>
  <path d="m76.05 70.72-.62-.42c-8.12-5.54-15.69-5.66-25.35-.4l-.25.14V58.19h.09c6.88-3.79 11-4.07 18.24-1.23h.06v.06Zm-13-5A21.52 21.52 0 0 1 75 69.6l-7-12.39c-7.16-2.79-11-2.53-17.79 1.19v11.05C54.84 66.94 59 65.69 63 65.69Z"/>
  <path d="M50 68.48c8.77-4.78 17.16-6 27.06 1l-8.37-14.09c-7.28-2.84-11.4-2.75-18.69 1.27v11.82Z" fill="#fff"/>
  <path d="m77.63 70.14-.63-.47c-8.78-6.21-16.82-6.52-26.88-1l-.25.14V56.56l.09-.05c7.1-3.92 11.33-4.21 18.83-1.28h.06ZM63.26 64.4c4.48 0 8.77 1.5 13.25 4.52l-7.94-13.39c-7.41-2.88-11.39-2.62-18.39 1.23v11.43c4.7-2.53 8.96-3.79 13.08-3.79Z"/>
  <path d="M49.8 71c-7.9-4.21-15.84-5.63-24.34.1L33 59.36c6.61-2.55 10.35-2.47 17 1.13v10.34a.13.13 0 0 0 0 .1s-.12 0-.13 0Z" fill="#fff"/>
  <path d="m24.85 71.71 8.07-12.49c6.82-2.63 10.66-2.37 17.11 1.14h.1V71h-.12v.05h-.23c-9.29-4.94-16.74-4.91-24.17.1ZM37 67.09c4 0 8.15 1.23 12.79 3.69V60.6c-6.35-3.44-10-3.68-16.68-1.1l-7.1 11A20 20 0 0 1 37 67.09Z"/>
  <path d="M50 69.75c-8.49-4.64-16.38-5.85-25.52.4l7.43-13.08C39 54.32 43 54.41 50 58.3Z" fill="#fff"/>
  <path d="m24 70.72 7.84-13.79h.05c7.27-2.84 11.37-2.56 18.25 1.23h.09V70l-.26-.14c-9.65-5.26-17.23-5.15-25.35.4Zm8-13.51L25 69.6c7.94-5.17 15.42-5.21 24.84-.15V58.4C43.05 54.68 39.2 54.42 32 57.21Z"/>
  <path d="M50 68.48c-8.77-4.78-17.16-6-27.06 1l8.37-14.13c7.28-2.84 11.41-2.75 18.69 1.27v11.86Z" fill="#fff"/>
  <path d="m22.37 70.14 8.82-14.89h.06c7.5-2.93 11.73-2.64 18.84 1.28l.09.05v12.2l-.26-.14c-10.06-5.49-18.1-5.18-26.88 1Zm9.06-14.61L23.5 68.92c8.57-5.79 16.51-6 26.33-.73V56.76c-7.01-3.85-10.99-4.11-18.4-1.23Z"/>
  <path d="M50 34.42a14.72 14.72 0 1 1-14.71 14.71A14.72 14.72 0 0 1 50 34.42Z" fill="#fff"/>
  <path d="M50 64.38a15.25 15.25 0 1 1 15.24-15.25A15.26 15.26 0 0 1 50 64.38ZM50 35a14.19 14.19 0 1 0 14.19 14.13A14.2 14.2 0 0 0 50 35Z"/>
  <path d="M49.67 64.14c-8-9-6.44-22.74 0-30l.66.58c-6.19 7-7.67 20.25 0 28.85Z"/>
  <path d="m50.2 64.25-.39-.79c6.28-3.11 9.84-8.77 9.53-15.14a15 15 0 0 0-9.49-13.49l.31-.82a15.92 15.92 0 0 1 10.06 14.26C60.55 55 56.8 61 50.2 64.25Z"/>
  <path d="M49.81 64.25c-6.61-3.27-10.36-9.24-10-16A15.92 15.92 0 0 1 49.85 34l.31.82a15 15 0 0 0-9.5 13.49c-.31 6.37 3.26 12 9.54 15.14Z"/>
  <path d="m50.33 64.14-.66-.58c7.67-8.6 6.19-21.86 0-28.85l.66-.58c6.44 7.27 7.98 21.06 0 30.01Z"/>
  <path d="M35.29 48.69h29.43v.88H35.29zm1.129-4.79.003-.88 27.21.11-.003.88zm.018 11.092.004-.88 27.21.114-.004.88zm3.11 4.914.005-.88 20.82.113-.005.88z"/>
  <path fill="#fff" d="m60.96 39.35-21.85-.11"/>
  <path d="m39.11 39.764.006-1.05 21.85.11-.006 1.05z"/>
  <path fill="#fff" d="m50 63.85.11-29.43"/>
  <path d="m49.48 63.848.107-29.43 1.05.004-.108 29.43zM37.06 48.2c.53-1.18 3.24-1.4 4.3.44s3.22 1.23 3.11 2a12.43 12.43 0 0 1-.62 1.74 15.87 15.87 0 0 1-2.29 4.35c-.45.63.33 1.9 0 2-.71.33-1.68-.8-2-2.13s-.21-2.83-.82-3.27a5 5 0 0 1-1.73-5.12Z"/>
  <path d="M46.28 63.37c2.46-2.28 10-2.58 11.63-1.91a14.7 14.7 0 0 1-8 2.36 15 15 0 0 1-3.63-.45Z"/>
  <path d="m31.26 19.77 5-3 3.22 1.91 1.39-3.48 5.68-.89c.87-.12.16 1.61.16 2.17.21 2.31.39 5.19 1.16 7l-4.46 1c.28-2.46-1-4.74-1.47-7.12l-2.14 5.55-5.8-2.66c1.73 1.95 2.56 4.59 4.58 6l-2.06 1.43c-.74-3.24-3-5.22-5.28-7.9Z" fill="#fbf919"/>
  <path d="M36.52 27.73v-.05c-.61-2.63-2.19-4.41-4-6.45l-1.26-1.44 5-3 3.18 1.89 1.38-3.46 5.7-.89a.39.39 0 0 1 .36.1c.23.25.09.89 0 1.45a4.7 4.7 0 0 0-.11.66c0 .25.05.52.07.79a23.29 23.29 0 0 0 1.08 6.23v.05l-4.5 1v-.05a11.37 11.37 0 0 0-.81-4.75c-.23-.73-.47-1.48-.63-2.23L39.82 23l-5.66-2.6a18.9 18.9 0 0 1 1.68 2.44 10.65 10.65 0 0 0 2.78 3.41h.05Zm-5.2-7.95 1.23 1.39c1.82 2 3.4 3.81 4 6.43l2-1.36a10.8 10.8 0 0 1-2.76-3.4A17.86 17.86 0 0 0 34 20.27l-.13-.14 5.92 2.73L42 17.21v.13a21 21 0 0 0 .66 2.35 12 12 0 0 1 .82 4.73l4.35-1a23.77 23.77 0 0 1-1.07-6.21c0-.27 0-.54-.07-.8a4.08 4.08 0 0 1 .12-.68c.11-.51.26-1.15.05-1.38a.3.3 0 0 0-.29-.07l-5.65.88-1.4 3.51-3.2-1.9Z" fill="#332d2b"/>
  <path d="m64.86 17.81-5.78-2.61-7.23 7.86 1.95 1 2.77-3.31L59.5 23l-.22 2.35 4 2.81.77-9.3c.48-.17 1.18-.86.81-1.05Zm-7.59 2.12 2-2 .07 3.35Z" fill="#fbf919"/>
  <path d="m63.35 28.26-4.11-2.86.22-2.4-2.88-2.25-2.77 3.3-2-1 7.25-7.89 5.79 2.6A.27.27 0 0 1 65 18c0 .32-.55.75-.9.92Zm-4-2.9 4 2.76.65-9.25c.37-.17.85-.61.87-.86a.17.17 0 0 0-.08-.16l-5.76-2.59-7.18 7.8 1.88.95 2.78-3.32L59.54 23Zm.11-4.05L57.24 20l2.12-2.1Zm-2.1-1.39 2 1.25-.07-3.17Z" fill="#332d2b"/>
  <path d="M65.55 29.64c2.45 0 5.11-4.12 7.67-6.18L78 30.08l-1.8 4.43 3-1.09 1 2.4a22.72 22.72 0 0 0-9.2 2.91l-1.26-2c4-.43 3.6-5.2 3.54-9.9a22.16 22.16 0 0 0-6 5.12l-1.71-2.28Z" fill="#fbf919"/>
  <path d="m71 38.78-1.3-2.07h.06c3.69-.39 3.61-4.43 3.53-8.71v-1.08A21.93 21.93 0 0 0 67.3 32l-1.74-2.32-.14-.07h.16c1.61 0 3.37-1.86 5.06-3.65a27.65 27.65 0 0 1 2.59-2.52l4.82 6.63-1.75 4.37 3-1.07 1.09 2.48A22.56 22.56 0 0 0 71 38.76Zm-1.18-2L71 38.67a22.6 22.6 0 0 1 9.26-2.88l-1-2.32-3 1.11 1.74-4.5-4.77-6.56A28.12 28.12 0 0 0 70.67 26c-1.68 1.77-3.42 3.6-5 3.67l1.64 2.19a22 22 0 0 1 6-5.09h.06v1.22c.01 4.26.09 8.32-3.6 8.75Z" fill="#332d2b"/>
  <path d="m24.34 24.79 2.82 2.26c-5.18.72-5.47 4.64-4.6 5.35s5.23-6.62 8.52-4.51-2.95 8.86-1.95 11.63l-3.19-1.92c.81-.18 5.32-4.06 3.39-5.87s-5.52 8.27-8.62 4.73c-3.59-4 3.82-9.78 3.63-11.67Z" fill="#fbf919"/>
  <path d="m29.21 39.61-3.37-2h.09a8.59 8.59 0 0 0 3.76-4.17 1.53 1.53 0 0 0-.39-1.63.67.67 0 0 0-.54-.2c-.73.05-1.66 1.2-2.64 2.42-1.22 1.52-2.6 3.23-3.94 3.26a1.94 1.94 0 0 1-1.5-.76c-2.44-2.73.14-6.24 2-8.8.89-1.22 1.66-2.28 1.6-2.88v-.1l.08.06 1.41 1.13c.43.35.86.7 1.41 1.13l.07.06h-.09c-3.64.51-4.59 2.52-4.83 3.36a2 2 0 0 0 .24 1.92c.28.22 1.05-.56 2-1.46 1.76-1.77 4.41-4.44 6.57-3.05 1.95 1.25.66 4-.59 6.7-.9 1.95-1.76 3.79-1.34 4.94Zm-3.17-2 3 1.82c-.34-1.19.5-3 1.38-4.91 1.23-2.64 2.51-5.38.62-6.59-2.11-1.36-4.73 1.29-6.47 3-1 1-1.73 1.74-2.06 1.47a2 2 0 0 1-.26-2c.24-.85 1.18-2.87 4.8-3.4l-1.32-1-1.34-1.07c0 .63-.73 1.61-1.63 2.84-1.86 2.54-4.41 6-2 8.71a1.79 1.79 0 0 0 1.43.73c1.31 0 2.68-1.73 3.89-3.23 1-1.23 1.93-2.4 2.69-2.45a.76.76 0 0 1 .61.23 1.59 1.59 0 0 1 .4 1.7c-.5 1.73-2.98 3.86-3.78 4.15Z" fill="#332d2b"/>
  <path d="m21.94 78.75.69.18v.37a1.63 1.63 0 0 1-.59 1.31 2.42 2.42 0 0 1-1.59.49c-1.67 0-2.5-.94-2.5-2.81a3.17 3.17 0 0 1 .73-2.16 2.41 2.41 0 0 1 1.9-.83 1.58 1.58 0 0 1 1.82 1.75l-.7.32v-.38c0-.83-.33-1.24-1-1.24s-1.06.88-1.06 2.64c0 1.51.39 2.26 1.18 2.26a1 1 0 0 0 .8-.38 1.44 1.44 0 0 0 .33-1 5.07 5.07 0 0 0 0-.54Zm3-3.36V81h-1.67v-5.61Zm5.29 0-1.4 1.78L30.86 81H29l-1.31-2.46-.23.27V81h-1.59v-5.61h1.63v2.5l1.93-2.5Zm3.64 0L35.39 81h-1.64l-.33-1.21h-1.69L31.37 81h-.64l1.66-5.61h1.44Zm-1.94 3.83h1.38l-.66-2.48Zm3.9 1.78v-5.61h2.41a2.55 2.55 0 0 1 1.51.4 1.24 1.24 0 0 1 .56 1.06c0 .68-.4 1.13-1.21 1.33a1.53 1.53 0 0 1 .8.51 2.33 2.33 0 0 1 .25 1.07 2.51 2.51 0 0 0 .32 1.24H38.7a2.53 2.53 0 0 1-.17-1v-.75c0-.65-.26-1-.79-1h-.27V81h-1.64Zm1.63-3.16h.32a.84.84 0 0 0 .93-1c0-.65-.31-1-.93-1h-.32Zm6.24-2.45L45.26 81h-1.64l-.33-1.21H41.6L41.24 81h-.64l1.66-5.61Zm-1.94 3.83h1.38l-.66-2.48Zm8-3.83V81h-1.2l-2.35-3.55V81h-.54v-5.61h1l2.56 3.84v-3.84ZM52.94 78h2.31v3h-.52l-.18-.38a2.43 2.43 0 0 1-1.43.48 2.51 2.51 0 0 1-1.94-.75 3 3 0 0 1-.69-2.1 3.14 3.14 0 0 1 .73-2.14 2.46 2.46 0 0 1 1.91-.81A1.77 1.77 0 0 1 55 76.88l-.76.35v-.44c-.06-.66-.36-1-.92-1a.84.84 0 0 0-.84.53 5.65 5.65 0 0 0-.23 2 6.06 6.06 0 0 0 .18 1.82.68.68 0 0 0 .7.48c.4 0 .6-.22.6-.67v-1.41h-.81V78Zm9.85-2.58v3.77c0 1.29-.71 1.93-2.14 1.93s-2.13-.64-2.13-1.93v-3.8h1.62v3.82a1.65 1.65 0 0 0 .22 1 .94.94 0 0 0 .78.27c.74 0 1.11-.44 1.11-1.33v-3.76Zm4.83 0V76h-1.38v5h-1.73v-5h-1.38v-.57Zm3 0L72.15 81h-1.64l-.33-1.21h-1.69L68.13 81h-.64l1.66-5.61Zm-1.94 3.83H70l-.66-2.48ZM72.59 81v-5.61H75a2.55 2.55 0 0 1 1.51.4 1.24 1.24 0 0 1 .56 1.06c0 .68-.4 1.13-1.21 1.33a1.53 1.53 0 0 1 .8.51 2.33 2.33 0 0 1 .25 1.07 2.63 2.63 0 0 0 .32 1.24h-1.77a2.53 2.53 0 0 1-.17-1v-.75c0-.65-.26-1-.78-1h-.28V81h-1.64Zm1.63-3.16h.33c.61 0 .92-.32.92-1s-.31-1-.92-1h-.33Zm6.24-2.45L82 81h-1.62l-.33-1.21h-1.69L78 81h-.64L79 75.39Zm-1.94 3.83h1.38l-.66-2.48Z" fill="#fbf919"/>
  <path d="M53.12 81.14a2.58 2.58 0 0 1-2-.76 3.05 3.05 0 0 1-.7-2.13 3.15 3.15 0 0 1 .74-2.16 2.51 2.51 0 0 1 1.94-.83 1.82 1.82 0 0 1 1.93 1.62l-.85.38v-.46c-.05-.64-.34-1-.88-1a.81.81 0 0 0-.81.5 5.73 5.73 0 0 0-.22 2 5.94 5.94 0 0 0 .18 1.81.63.63 0 0 0 .66.45c.38 0 .56-.2.56-.63v-1.35h-.81v-.64h2.4V81h-.58l-.17-.36a2.52 2.52 0 0 1-1.39.5Zm0-5.8a2.43 2.43 0 0 0-1.88.8 3.12 3.12 0 0 0-.72 2.11 3 3 0 0 0 .68 2.08 2.5 2.5 0 0 0 1.91.73 2.43 2.43 0 0 0 1.41-.47l.19.4h.45V78H53v.49h.81v1.42c0 .47-.22.71-.64.71a.74.74 0 0 1-.74-.5 6.17 6.17 0 0 1-.18-1.84 5.87 5.87 0 0 1 .23-2 .88.88 0 0 1 .88-.55c.58 0 .9.35 1 1v.38l.68-.31a1.74 1.74 0 0 0-1.91-1.46Zm-32.66 5.8c-1.68 0-2.54-1-2.54-2.85a3.23 3.23 0 0 1 .74-2.19 2.45 2.45 0 0 1 1.93-.84 1.62 1.62 0 0 1 1.86 1.79l-.78.36v-.45c0-.81-.31-1.2-1-1.2s-1 .87-1 2.6c0 1.47.38 2.22 1.14 2.22a.94.94 0 0 0 .77-.37 1.43 1.43 0 0 0 .42-.91 5.07 5.07 0 0 0-.05-.54v-.05H22l.72.18v.37a1.66 1.66 0 0 1-.61 1.34 2.46 2.46 0 0 1-1.64.54Zm.13-5.8a2.34 2.34 0 0 0-1.87.82 3.1 3.1 0 0 0-.72 2.13c0 1.86.8 2.77 2.46 2.77a2.36 2.36 0 0 0 1.54-.48 1.6 1.6 0 0 0 .58-1.28v-.34l-.58-.15a4 4 0 0 1 .05.49 1.45 1.45 0 0 1-.34 1 1 1 0 0 1-.83.4c-.81 0-1.22-.77-1.22-2.3 0-1.78.37-2.68 1.1-2.68s1 .43 1 1.28v.32l.62-.28c-.01-1.15-.59-1.7-1.78-1.7Zm40.05 5.79c-1.44 0-2.17-.66-2.17-2v-3.78h1.7v3.86a1.69 1.69 0 0 0 .21 1 .9.9 0 0 0 .75.25c.72 0 1.07-.42 1.07-1.29v-3.82h.62v3.81c.01 1.31-.72 1.97-2.17 1.97Zm-2.1-5.7v3.73c0 1.27.69 1.89 2.1 1.89s2.1-.62 2.1-1.89v-3.73h-.47v3.73c0 .91-.38 1.37-1.14 1.37a1 1 0 0 1-.82-.29 1.78 1.78 0 0 1-.22-1v-3.81Zm15.71 5.62h-1.7v-5.7H75a2.59 2.59 0 0 1 1.53.41 1.27 1.27 0 0 1 .58 1.09A1.34 1.34 0 0 1 76 78.19a1.51 1.51 0 0 1 .71.48 2.56 2.56 0 0 1 .29 1.08 2.52 2.52 0 0 0 .26 1.25v.07h-1.82a2.37 2.37 0 0 1-.18-1v-.75c0-.63-.24-.93-.74-.93h-.24ZM72.63 81h1.55v-2.7h.32c.54 0 .82.34.82 1v.7a2.33 2.33 0 0 0 .16.94h1.66a3.13 3.13 0 0 1-.28-1.21 2.43 2.43 0 0 0-.24-1.05 1.54 1.54 0 0 0-.78-.49h-.12.12c.79-.2 1.18-.63 1.18-1.29a1.21 1.21 0 0 0-.54-1 2.55 2.55 0 0 0-1.48-.47h-2.37Zm-35.13.08h-1.71v-5.7h2.45a2.61 2.61 0 0 1 1.53.41 1.29 1.29 0 0 1 .58 1.09 1.34 1.34 0 0 1-1.12 1.34 1.51 1.51 0 0 1 .71.48 2.56 2.56 0 0 1 .25 1.08A2.52 2.52 0 0 0 40.5 81v.07h-1.82a2.55 2.55 0 0 1-.17-1v-.75c0-.63-.25-.93-.74-.93h-.27ZM35.87 81h1.55v-2.7h.32c.54 0 .82.34.82 1v.7a2.33 2.33 0 0 0 .16.94h1.66a3 3 0 0 1-.28-1.21 2.43 2.43 0 0 0-.24-1.05 1.54 1.54 0 0 0-.78-.49h-.12.12c.78-.2 1.18-.63 1.18-1.29a1.19 1.19 0 0 0-.55-1 2.5 2.5 0 0 0-1.48-.39h-2.36Zm46.2.07h-1.72L80 79.83h-1.61L78 81h-.72L79 75.35h1.49ZM80.41 81H82l-1.54-5.53h-1.41L77.42 81H78l.36-1.21h1.75Zm-8.21 0h-1.72l-.33-1.21h-1.63L68.16 81h-.72l1.68-5.69h1.5Zm-1.66 0h1.56l-1.54-5.53h-1.38L67.55 81h.55l.36-1.21h1.75Zm-4.26 0h-1.81v-5h-1.38v-.64h4.56V76h-1.37Zm-1.73 0h1.65v-5h1.38v-.49h-4.41V76h1.38Zm-14.71 0h-1.32l-2.27-3.45V81h-.62v-5.65h1.09l2.49 3.73v-3.73h.62Zm-1.26 0h1.19v-5.57h-.47v3.93l-2.62-3.93h-1V81h.47v-3.68Zm-3.27 0h-1.72l-.33-1.21h-1.63L41.27 81h-.72l1.68-5.69h1.5Zm-1.66 0h1.56l-1.54-5.53h-1.38L40.66 81h.55l.36-1.21h1.75Zm-8.21 0h-1.72l-.33-1.21h-1.63L31.4 81H29l-1.29-2.41-.19.21V81h-1.7v-5.65h1.7v2.43l1.88-2.43h.86l-1.43 1.82 1.93 3.58 1.59-5.4h1.49Zm-1.66 0h1.56l-1.54-5.57h-1.38l-1.6 5.42.06.11h.46l.36-1.21h1.75Zm-3 0Zm-1.71 0h1.63v-.1l-2-3.7 1.35-1.71h-.66l-2 2.58v-2.64h-1.48V81h1.55v-2.21l.28-.31Zm-4.13 0h-1.71v-5.65h1.71Zm-1.63 0h1.55v-5.57h-1.55ZM80 79.26h-1.53v-.05l.76-2.62Zm-1.38-.08h1.28l-.61-2.3Zm-8.49.08H68.6l.77-2.67Zm-1.38-.08H70l-.61-2.3Zm-25.51.08h-1.53v-.05l.76-2.62Zm-1.38-.08h1.28l-.61-2.3Zm-8.49.08h-1.53l.77-2.67Zm-1.38-.08h1.28l-.62-2.3Zm42.61-1.3h-.37v-2h.37c.64 0 1 .34 1 1s-.41 1-1.05 1Zm-.29-.08h.29c.59 0 .88-.3.88-.92s-.29-.93-.88-.93h-.29Zm-36.48.08h-.36v-2h.36c.65 0 1 .34 1 1a.87.87 0 0 1-1.05 1Zm-.28-.08h.28c.6 0 .89-.3.89-.92s-.29-.93-.89-.93h-.33Z"/>
  <path d="m33.49 84.47 1 1.91h-.9L33 85.16l-.12.13v1.09H32v-2.79h.81v1.25l1-1.25h.38Zm2.5-.88.78 2.78H36l-.16-.6H35l-.18.6h-.31l.82-2.78Zm-1 1.9h.68l-.33-1.23Zm1.95.88v-2.78h1.24c.64 0 1 .23 1 .68s-.19.54-.58.63c.47.09.7.33.7.73s-.31.75-.94.75H37Zm.81-.23H38c.3 0 .46-.17.46-.51S38.32 85 38 85h-.22Zm0-1.34H38c.23 0 .35-.17.35-.51s-.12-.47-.37-.47h-.23v1Zm3.92-1.21v1.87c0 .64-.36 1-1.07 1s-1.06-.32-1.06-1v-1.87h.81v1.89a.86.86 0 0 0 .11.5.46.46 0 0 0 .38.14c.37 0 .55-.22.55-.66v-1.87Zm.43 2.78v-2.78h1.21c.68 0 1 .27 1 .82s-.38.82-1.14.82H43v1.14ZM43 85h.18c.3 0 .45-.19.45-.58s-.15-.55-.45-.55H43V85Zm3-1.39.78 2.79h-.82l-.16-.61h-.84l-.18.61h-.31l.82-2.79Zm-1 1.91h.68l-.33-1.24Zm3.91-1.91v.28h-.69v2.51h-.86v-2.54h-.68v-.28Zm2 0v.28h-1v.85h.84V85h-.84v1.1H51v.28h-2v-2.79h1.81Zm2.45 0v2.79h-.62l-1.19-1.8v1.77h-.27v-2.79h.51l1.27 1.91v-1.91Zm1.72 2.79v-2.82h1.24q1 0 1 .69c0 .32-.19.53-.58.62.46.09.7.34.7.74s-.31.74-.94.74Zm.81-.23h.23c.3 0 .45-.17.45-.52s-.15-.59-.46-.59h-.22Zm0-1.35h.25c.23 0 .34-.17.34-.51s-.12-.47-.36-.47h-.23v1Zm3.62-1.21v.28h-1v.84h.83V85h-.83v1.1h1.16v.28h-2v-2.8Zm2.57 0-.69.88 1 1.91h-.9l-.65-1.22-.12.13v1.09h-.82v-2.81h.81v1.24l1-1.24Zm1.81 0 .78 2.79h-.82l-.16-.61h-.84l-.18.61h-.31l.82-2.79Zm-1 1.9h.68l-.33-1.23Zm3.4-1a1.54 1.54 0 0 0 0-.19c0-.32-.19-.48-.59-.48s-.46.11-.46.33.17.31.52.43c.67.23 1 .57 1 1a.8.8 0 0 1-.28.64 1.13 1.13 0 0 1-.75.24c-.69 0-1-.27-1-.8v-.17l.39-.08a1.25 1.25 0 0 0 0 .31c0 .34.2.52.59.52s.48-.13.48-.38-.19-.35-.57-.49c-.55-.2-.83-.52-.83-1a.77.77 0 0 1 .28-.61 1.09 1.09 0 0 1 .72-.23c.61 0 .92.28.92.83Zm1.71-.93v2.79h-.81v-2.79Z" fill="#fbf919"/>
  <path d="M65.76 86.46c-.71 0-1.07-.29-1.07-.84a1 1 0 0 1 0-.17l.48-.1v.06a1.18 1.18 0 0 0 0 .3c0 .32.18.48.55.48s.44-.11.44-.34-.18-.32-.54-.45c-.57-.21-.85-.54-.85-1a.8.8 0 0 1 .28-.64 1.16 1.16 0 0 1 .75-.24c.64 0 1 .3 1 .87l-.46.09v-.06a1.24 1.24 0 0 0 0-.18c0-.3-.18-.45-.55-.45s-.42.1-.42.3.16.28.49.39c.68.24 1 .59 1 1.06a.87.87 0 0 1-.29.67 1.21 1.21 0 0 1-.81.25Zm-1-1v.13c0 .51.33.76 1 .76a1.09 1.09 0 0 0 .72-.23.78.78 0 0 0 .27-.61c0-.43-.33-.76-1-1-.37-.13-.55-.29-.55-.47s.09-.37.5-.37.63.17.63.52a.71.71 0 0 1 0 .14h.28c0-.51-.3-.76-.88-.76a1.1 1.1 0 0 0-.7.22.74.74 0 0 0-.26.58c0 .43.27.73.8.93s.6.32.6.52-.09.41-.52.41-.63-.18-.63-.55a1.3 1.3 0 0 1 0-.26Zm-24.13 1c-.73 0-1.1-.34-1.1-1v-1.91h.89v1.93a.8.8 0 0 0 .1.48.42.42 0 0 0 .35.12c.35 0 .52-.21.52-.62v-1.91h.35v1.91c.01.66-.37 1-1.1 1Zm-1-2.83v1.83c0 .62.34.92 1 .92s1-.3 1-.92v-1.83h-.2v1.83c0 .46-.19.7-.59.7a.51.51 0 0 1-.42-.15 1 1 0 0 1-.11-.53v-1.85Zm-6.74 2.79H32v-2.87h.89v1.17l.9-1.17h.48l-.73.92.94 1.74.78-2.66H36l.79 2.83h-.9l-.16-.6H35l-.18.6h-1.23L33 85.23l-.07.07Zm-.81-.08h.73v-1.07l.17-.18.67 1.25h.79l-1-1.84.66-.84h-.28L32.8 85v-1.37h-.73Zm3.91 0h.73L36 83.63h-.65l-.79 2.68h.21l.17-.61h.9Zm2.38.08H37v-2.87h1.28c.66 0 1 .24 1 .72a.62.62 0 0 1-.47.62.74.74 0 0 1 .59.75c-.06.51-.4.78-1.04.78ZM37 86.34h1.34c.61 0 .9-.23.9-.7s-.24-.64-.64-.71h-.18.17c.37-.09.55-.28.55-.59s-.3-.64-.92-.64H37Zm6 .07h-.9v-2.86h1.25c.7 0 1.06.29 1.06.86s-.4.86-1.18.86H43Zm-.81-.07h.73v-1.15h.32c.74 0 1.1-.26 1.1-.78s-.32-.78-1-.78h-1.16Zm18.57.07h-.89v-2.86h.89v1.16l.9-1.16h.49l-.74.93.94 1.73.78-2.66h.74l.79 2.84h-.9l-.16-.61h-.78l-.18.61h-1.18l-.64-1.19-.07.08Zm-.81-.08h.73v-1.06l.17-.19.66 1.25h.8l-1-1.85.64-.82h-.28l-1 1.32v-1.35h-.73Zm3.91 0h.73l-.75-2.71h-.65l-.79 2.68h.21l.18-.61h.9Zm-7.42.08H55v-2.87h1.28c.66 0 1 .25 1 .73a.62.62 0 0 1-.47.62.72.72 0 0 1 .59.74c.01.52-.32.78-.97.78Zm-1.34-.08h1.34c.6 0 .9-.23.9-.7s-.22-.61-.67-.7h-.18.18c.37-.08.55-.27.55-.58s-.3-.65-.92-.65h-1.2Zm-4 .08H49v-2.86h1.85v.31h-1v.77h.84V85h-.84v1h1.16Zm-2-.08H51v-.2h-1.16V85h.84v-.2h-.84v-.93h1v-.19h-1.73Zm10.58.08h-2v-2.87h1.84v.32h-1v.76h.83V85h-.83v1h1.16Zm-2-.08h1.89v-.2h-1.12V85h.84v-.21h-.84v-.92h1v-.2h-1.73Zm-4.35.08h-.68l-1.09-1.65v1.67h-.35v-2.89h.57L53 85.36v-1.82h.35Zm-.63-.08h.56v-2.71h-.2v2l-1.33-2h-.45v2.71h.19v-1.86Zm-4.53.08h-.93V83.9h-.69v-.36h2.35v.36h-.69Zm-.86-.08h.78v-2.51h.69v-.2h-2.11v.2h.68Zm-.61.08h-.9l-.16-.61h-.74l-.18.61h-.4l.85-2.87h.74Zm-.84-.08h.73l-.75-2.71h-.65l-.8 2.71h.23l.18-.6h.9Zm22.1.08h-.89v-2.87H68Zm-.81-.08h.73v-2.71h-.73ZM38 86.18h-.27V85H38c.23 0 .51.11.51.64s-.26.54-.51.54Zm-.19-.08H38c.28 0 .42-.15.42-.47s-.14-.56-.43-.56h-.18Zm18.26.08h-.27V85h.26c.23 0 .5.11.5.63s-.24.55-.47.55Zm-.19-.08h.19c.28 0 .41-.16.41-.48s-.14-.56-.42-.56h-.16Zm-20.14-.57H35l.41-1.42Zm-.68-.08h.58l-.28-1Zm10.6.07h-.76l.4-1.42Zm-.66-.07h.58l-.28-1Zm18.63.07h-.78l.41-1.42Zm-.63-.08h.58l-.28-1ZM43.13 85h-.22v-1.2h.22c.22 0 .48.1.48.59s-.16.61-.48.61Zm-.13-.07h.14c.27 0 .41-.18.41-.54s-.14-.51-.41-.51H43Zm-5-.09h-.29v-1.06H38c.19 0 .41.08.41.51s-.19.55-.41.55Zm-.21-.08H38c.21 0 .31-.16.31-.47s-.11-.44-.33-.44h-.19Zm18.28.07h-.29v-1.06h.27c.18 0 .4.09.4.51s-.17.55-.34.55Zm-.21-.08h.21c.2 0 .3-.15.3-.47s-.1-.43-.32-.43h-.15ZM40.8 37.64c.38 0-1 1.72-.54 1.83.8.21 2.11-.46 3-1A1.92 1.92 0 0 0 44.42 37c-.19-2.24 1.21-1.43 2-1.33.19 0 1-.53 1.21-.57.62-.11.48 1.2-.83 2.24-1.61 1.28-3.11 1.37-4.13 1.94-3.33 1.84-5.24 4.51-6.27 4.67h-.18a14.87 14.87 0 0 1 4.56-6.36Zm11.56.82a7.34 7.34 0 0 1 4.46-2.13h.31a14.77 14.77 0 0 1 6.74 7.92c-.51.23-1.18.43-1.43.91s.09 2.16-.32 2-1-1.9-1.88-2.47c-1.16-.76-3-1.29-3.14-1s1.64 1.14 1.36 1.54c-1.57 2.22-2.08-.19-2.77.44s2.09 1.2 2.16 1.62c.12.78-2.3 2.67-2.32 3.1 0 .81 1.14.57.71 1.59a13.66 13.66 0 0 1-2.48 2.9C47 58 49.15 44.1 52.36 38.46Z"/>
  <path d="m53.39 35 .37 21.14c0 1.69 2.32 2.63 3.58 2.66.69 0 .62.79.07.79L43 59.46a.45.45 0 1 1 0-.89c2.55-.19 4.29-1.12 4.28-2.74l-.05-13.28c0-2.34-6-1.43-6-2.42 0-1.29 9.59-.86 12.14-5.2Z" fill="#ffff06"/>
  <path d="M57.41 60 43 59.9a.86.86 0 0 1-.9-.85.88.88 0 0 1 .84-.92c2.43-.18 3.87-1 3.87-2.3l-.05-13.28c0-1-2.07-1.23-3.58-1.38s-2.47-.25-2.45-1.05 1.22-1 3.41-1.47c2.9-.54 7.28-1.37 8.8-3.94l.18-.31.31.11h.36v.43l.37 21.15c0 1.39 2.09 2.19 3.15 2.22a.87.87 0 0 1 .93.85.85.85 0 0 1-.83.84ZM41.84 40.09a12.6 12.6 0 0 0 1.46.2c1.84.19 4.36.45 4.37 2.26v13.28c0 1.8-1.7 3-4.69 3.17l13.53.09c-1.42-.31-3.21-1.32-3.24-3l-.35-20c-2.07 2.14-6 2.87-8.64 3.38a19 19 0 0 0-2.44.62Z"/>
</svg>